<mxfile host="app.diagrams.net" agent="Mozilla/5.0 (Windows NT 10.0; Win64; x64) AppleWebKit/537.36 (KHTML, like Gecko) Chrome/133.0.0.0 Safari/537.36" version="26.0.10">
  <diagram id="C5RBs43oDa-KdzZeNtuy" name="Page-1">
    <mxGraphModel dx="1290" dy="565" grid="1" gridSize="10" guides="1" tooltips="1" connect="1" arrows="1" fold="1" page="1" pageScale="1" pageWidth="827" pageHeight="1169" math="0" shadow="0">
      <root>
        <mxCell id="WIyWlLk6GJQsqaUBKTNV-0" />
        <mxCell id="WIyWlLk6GJQsqaUBKTNV-1" parent="WIyWlLk6GJQsqaUBKTNV-0" />
        <mxCell id="_M_5VaH7oxw-l6IXBUP2-0" value="&lt;span style=&quot;background-color: transparent; color: light-dark(rgb(0, 0, 0), rgb(255, 255, 255));&quot;&gt;WeekDaysManager&lt;/span&gt;" style="swimlane;fontStyle=1;align=center;verticalAlign=top;childLayout=stackLayout;horizontal=1;startSize=26;horizontalStack=0;resizeParent=1;resizeParentMax=0;resizeLast=0;collapsible=1;marginBottom=0;whiteSpace=wrap;html=1;shadow=1;fillColor=light-dark(#99CCFF,var(--ge-dark-color, #121212));" vertex="1" parent="WIyWlLk6GJQsqaUBKTNV-1">
          <mxGeometry x="219" y="130" width="340" height="230" as="geometry" />
        </mxCell>
        <mxCell id="_M_5VaH7oxw-l6IXBUP2-1" value="&lt;pre&gt;&lt;b&gt;+days: List&amp;lt;String&amp;gt;&lt;br&gt;&lt;/b&gt;&lt;br&gt;&lt;/pre&gt;" style="text;strokeColor=none;fillColor=none;align=left;verticalAlign=top;spacingLeft=4;spacingRight=4;overflow=hidden;rotatable=0;points=[[0,0.5],[1,0.5]];portConstraint=eastwest;whiteSpace=wrap;html=1;" vertex="1" parent="_M_5VaH7oxw-l6IXBUP2-0">
          <mxGeometry y="26" width="340" height="44" as="geometry" />
        </mxCell>
        <mxCell id="_M_5VaH7oxw-l6IXBUP2-2" value="" style="line;strokeWidth=1;fillColor=none;align=left;verticalAlign=middle;spacingTop=-1;spacingLeft=3;spacingRight=3;rotatable=0;labelPosition=right;points=[];portConstraint=eastwest;strokeColor=inherit;" vertex="1" parent="_M_5VaH7oxw-l6IXBUP2-0">
          <mxGeometry y="70" width="340" height="8" as="geometry" />
        </mxCell>
        <mxCell id="_M_5VaH7oxw-l6IXBUP2-3" value="&lt;pre&gt;&lt;font face=&quot;Helvetica&quot;&gt; + addDaysList(): void              &lt;br&gt; + getDays(): List&amp;lt;String&amp;gt;          &lt;br&gt; + getDaysListSize(): int           &lt;br&gt; + deleteDayList(day: String): void &lt;br&gt; + getDayRequest(index: int): String&lt;br&gt; + dayExists(day: String): boolean  &lt;br&gt; + sortDaysAlphabetically(): void&lt;/font&gt;&lt;/pre&gt;&lt;pre&gt;+ &lt;span style=&quot;font-family: Helvetica; background-color: transparent; color: light-dark(rgb(0, 0, 0), rgb(255, 255, 255)); white-space: normal;&quot;&gt;clearDaysList(): &lt;/span&gt;&lt;span style=&quot;font-family: Helvetica; background-color: transparent; color: light-dark(rgb(0, 0, 0), rgb(255, 255, 255)); white-space: normal;&quot;&gt;void&amp;nbsp;&lt;/span&gt;&lt;/pre&gt;" style="text;strokeColor=none;fillColor=none;align=left;verticalAlign=top;spacingLeft=4;spacingRight=4;overflow=hidden;rotatable=0;points=[[0,0.5],[1,0.5]];portConstraint=eastwest;whiteSpace=wrap;html=1;" vertex="1" parent="_M_5VaH7oxw-l6IXBUP2-0">
          <mxGeometry y="78" width="340" height="152" as="geometry" />
        </mxCell>
      </root>
    </mxGraphModel>
  </diagram>
</mxfile>
